<?xml version="1.0" encoding="UTF-8" standalone="no"?>
<!DOCTYPE svg PUBLIC "-//W3C//DTD SVG 1.1//EN" "http://www.w3.org/Graphics/SVG/1.1/DTD/svg11.dtd">
<svg width="100%" height="100%" viewBox="0 0 800 114" preserveAspectRatio="none" version="1.1" xmlns="http://www.w3.org/2000/svg" xmlns:xlink="http://www.w3.org/1999/xlink" xml:space="preserve" xmlns:serif="http://www.serif.com/" style="fill-rule:evenodd;clip-rule:evenodd;stroke-linejoin:round;stroke-miterlimit:2;">
    <rect x="-1" y="-1" width="801" height="115"/>
    <g transform="matrix(1,0,0,-1,0,381.5)">
        <path d="M0,271.5L33.3,280.301C66.7,289.2 133.3,306.801 200,308.5C266.7,310.2 333.3,295.801 400,298.7C466.189,301.478 530.174,320.564 595.236,331.234C651.914,340.529 709.356,343.142 766.7,344L800,344.5L800,381.5L0,381.5L0,271.5Z" style="fill:rgb(177,177,177);fill-rule:nonzero;"/>
    </g>
    <g transform="matrix(1,0,0,-1,0,333.5)">
        <path d="M0,257.778C0,257.778 0.9,256.846 33.3,251.212C66.246,245.483 133.3,230.443 200,250.61C264.113,270.059 321.591,308.37 387.494,322.374C459.664,337.71 531.301,312.291 600,292.782C666.014,273.97 733.004,259.079 800,244.274L800,347.5L0,347.5L0,257.778Z" style="fill:white;fill-rule:nonzero;"/>
    </g>
</svg>
