<?xml version="1.0" encoding="UTF-8" standalone="no"?>
<!DOCTYPE svg PUBLIC "-//W3C//DTD SVG 1.1//EN" "http://www.w3.org/Graphics/SVG/1.1/DTD/svg11.dtd">
<svg width="100%" height="100%" viewBox="0 0 289 327" version="1.1" xmlns="http://www.w3.org/2000/svg" xmlns:xlink="http://www.w3.org/1999/xlink" xml:space="preserve" xmlns:serif="http://www.serif.com/" style="fill-rule:evenodd;clip-rule:evenodd;stroke-linejoin:round;stroke-miterlimit:2;">
    <g id="for-light-bg-cutout" serif:id="for-light-bg cutout" transform="matrix(1,0,0,1,-400.64,-201.0625)">
        <path d="M544.83,527.12C538.763,527.118 532.697,525.538 527.28,522.37L417.87,458.41C407.24,452.2 400.64,440.69 400.64,428.38L400.64,299.78C400.64,287.43 407.19,276.01 417.85,269.78L527.28,205.81C538.11,199.48 551.56,199.48 562.39,205.81L671.82,269.78C682.48,276.01 689.03,287.43 689.03,299.78L689.03,428.38C689.03,440.69 682.43,452.2 671.8,458.41L562.39,522.37C556.983,525.538 550.917,527.118 544.84,527.12L544.83,527.12ZM580.16,309.34L612.26,302.6C613.4,302.36 613.65,300.84 612.64,300.25L558.11,268.66C556.98,268.01 555.71,269.28 556.37,270.4L578.8,308.74C579.08,309.21 579.62,309.45 580.16,309.34ZM509.21,328.96L462.06,410.19C461.57,411.04 462.18,412.1 463.16,412.1L538.07,412.1C538.94,412.1 539.56,411.25 539.28,410.42C535.65,399.83 515.95,342.3 511.51,329.18C511.16,328.14 509.76,328.01 509.21,328.96ZM548.93,422.58L549.34,462.76C549.34,463.6 550.17,464.22 550.97,463.97C552.38,463.54 553.75,462.96 555.06,462.21L620.84,423.66C621.96,423 621.49,421.29 620.2,421.29L550.2,421.29C549.49,421.29 548.93,421.87 548.93,422.57L548.93,422.58ZM535.18,462.21C536.44,462.94 537.76,463.5 539.11,463.93C539.93,464.19 540.76,463.55 540.75,462.69L540.33,421.29L470.03,421.29C468.73,421.29 468.27,423 469.39,423.66L535.18,462.21ZM472.02,302.56C470.97,303.17 471.29,304.76 472.49,304.92L509.48,309.79L532.39,270.33C533.04,269.2 531.78,267.94 530.65,268.59L472.02,302.56ZM569.29,320.05L519.64,320.05C518.78,320.05 518.16,320.89 518.43,321.72L543.31,398.32C543.69,399.49 545.35,399.49 545.73,398.32L570.5,321.72C570.77,320.9 570.15,320.06 569.29,320.06L569.29,320.05ZM633.78,327.48C633.75,322 631.29,314.15 626.53,309.36C626.23,309.06 625.8,308.94 625.39,309.03C620.8,310 593.46,315.74 586.28,317.25C585.43,317.43 585.01,318.39 585.45,319.14L631.44,397.74C632.1,398.86 633.81,398.39 633.81,397.1L633.78,327.49L633.78,327.48ZM521.7,310.85L567.18,310.85C568.16,310.85 568.77,309.78 568.28,308.94L545.45,269.93C544.96,269.09 543.74,269.09 543.25,269.93L520.6,308.94C520.11,309.79 520.72,310.85 521.7,310.85ZM579.3,328.96C578.75,328.01 577.35,328.14 577,329.18C572.56,342.3 552.86,399.83 549.23,410.42C548.95,411.25 549.57,412.1 550.44,412.1L625.35,412.1C626.33,412.1 626.94,411.04 626.45,410.19L579.3,328.96ZM503.69,317.87L462.19,312.24C461.72,312.18 461.24,312.38 460.97,312.77C458.76,316 456.88,319.81 456.88,323.79L456.35,398.18C456.35,399.48 458.07,399.96 458.72,398.83L504.61,319.77C505.06,318.99 504.58,317.99 503.68,317.87L503.69,317.87Z" style="fill:#00024f"/>
    </g>
</svg>
