<?xml version="1.0" encoding="UTF-8" standalone="no"?>
<!DOCTYPE svg PUBLIC "-//W3C//DTD SVG 1.1//EN" "http://www.w3.org/Graphics/SVG/1.1/DTD/svg11.dtd">
<svg width="100%" height="100%" viewBox="0 0 289 327" version="1.1" xmlns="http://www.w3.org/2000/svg" xmlns:xlink="http://www.w3.org/1999/xlink" xml:space="preserve" xmlns:serif="http://www.serif.com/" style="fill-rule:evenodd;clip-rule:evenodd;stroke-linejoin:round;stroke-miterlimit:2;">
    <g id="for-light-bg-plain" serif:id="for-light-bg plain">
        <g id="rpg_dice" transform="matrix(1,0,0,1,-401.73,-201.0625)">
            <g>
                <path d="M510.3,328.96L463.15,410.19C462.66,411.04 463.27,412.1 464.25,412.1L539.16,412.1C540.03,412.1 540.65,411.25 540.37,410.42C536.74,399.83 517.04,342.3 512.6,329.18C512.25,328.14 510.85,328.01 510.3,328.96Z" style="fill-rule:nonzero;fill:#00024f;"/>
                <path d="M580.39,328.96L627.54,410.19C628.03,411.04 627.42,412.1 626.44,412.1L551.53,412.1C550.66,412.1 550.04,411.25 550.32,410.42C553.95,399.83 573.65,342.3 578.09,329.18C578.44,328.14 579.84,328.01 580.39,328.96Z" style="fill-rule:nonzero;fill:#00024f;"/>
                <path d="M570.38,320.05L520.73,320.05C519.87,320.05 519.25,320.89 519.52,321.72L544.4,398.32C544.78,399.49 546.44,399.49 546.82,398.32L571.59,321.72C571.86,320.9 571.24,320.06 570.38,320.06L570.38,320.05Z" style="fill-rule:nonzero;fill:#00024f;"/>
                <path d="M522.8,310.85L568.28,310.85C569.26,310.85 569.87,309.78 569.38,308.94L546.55,269.93C546.06,269.09 544.84,269.09 544.35,269.93L521.7,308.94C521.21,309.79 521.82,310.85 522.8,310.85Z" style="fill-rule:nonzero;fill:#00024f;"/>
                <path d="M581.25,309.34L613.35,302.6C614.49,302.36 614.74,300.84 613.73,300.25L559.2,268.66C558.07,268.01 556.8,269.28 557.46,270.4L579.89,308.74C580.17,309.21 580.71,309.45 581.25,309.34Z" style="fill-rule:nonzero;fill:#00024f;"/>
                <path d="M634.87,327.48C634.84,322 632.38,314.15 627.62,309.36C627.32,309.06 626.89,308.94 626.48,309.03C621.89,310 594.55,315.74 587.37,317.25C586.52,317.43 586.1,318.39 586.54,319.14L632.53,397.74C633.19,398.86 634.9,398.39 634.9,397.1L634.87,327.49L634.87,327.48Z" style="fill-rule:nonzero;fill:#00024f;"/>
                <path d="M550.02,422.58L550.43,462.76C550.43,463.6 551.26,464.22 552.06,463.97C553.47,463.54 554.84,462.96 556.15,462.21L621.93,423.66C623.05,423 622.58,421.29 621.29,421.29L551.29,421.29C550.58,421.29 550.02,421.87 550.02,422.57L550.02,422.58Z" style="fill-rule:nonzero;fill:#00024f;"/>
                <path d="M536.27,462.21C537.53,462.94 538.85,463.5 540.2,463.93C541.02,464.19 541.85,463.55 541.84,462.69L541.42,421.29L471.12,421.29C469.82,421.29 469.36,423 470.48,423.66L536.27,462.21Z" style="fill-rule:nonzero;fill:#00024f;"/>
                <path d="M504.79,317.87L463.29,312.24C462.82,312.18 462.34,312.38 462.07,312.77C459.86,316 457.98,319.81 457.98,323.79L457.45,398.18C457.45,399.48 459.17,399.96 459.82,398.83L505.71,319.77C506.16,318.99 505.68,317.99 504.78,317.87L504.79,317.87Z" style="fill-rule:nonzero;fill:#00024f;"/>
                <path d="M473.12,302.56C472.07,303.17 472.39,304.76 473.59,304.92L510.58,309.79L533.49,270.33C534.14,269.2 532.88,267.94 531.75,268.59L473.12,302.56Z" style="fill-rule:nonzero;fill:#00024f;"/>
            </g>
        </g>
        <g id="outline" transform="matrix(1,0,0,1,-401.73,-201.0625)">
            <path d="M545.93,527.12C539.86,527.12 533.79,525.54 528.37,522.37L418.96,458.41C408.33,452.2 401.73,440.69 401.73,428.38L401.73,299.78C401.73,287.43 408.28,276.01 418.94,269.78L528.37,205.81C539.2,199.48 552.65,199.48 563.48,205.81L672.91,269.78C683.57,276.01 690.12,287.43 690.12,299.78L690.12,428.38C690.12,440.69 683.52,452.2 672.89,458.41L563.48,522.37C558.07,525.54 552,527.12 545.92,527.12L545.93,527.12ZM545.93,210.26C541.47,210.26 537,211.42 533.02,213.75L423.6,277.72C415.79,282.29 410.93,290.75 410.93,299.8L410.93,428.39C410.93,437.44 415.78,445.9 423.6,450.47L533.02,514.44C540.98,519.09 550.87,519.09 558.83,514.44L668.25,450.47C676.06,445.9 680.92,437.44 680.92,428.39L680.92,299.8C680.92,290.75 676.07,282.29 668.25,277.72L558.83,213.75C554.85,211.42 550.39,210.26 545.92,210.26L545.93,210.26Z" style="fill-rule:nonzero;fill:#00024f;"/>
        </g>
    </g>
</svg>
