<?xml version="1.0" encoding="UTF-8" standalone="no"?>
<!DOCTYPE svg PUBLIC "-//W3C//DTD SVG 1.1//EN" "http://www.w3.org/Graphics/SVG/1.1/DTD/svg11.dtd">
<svg width="100%" height="100%" viewBox="0 0 289 327" version="1.1" xmlns="http://www.w3.org/2000/svg" xmlns:xlink="http://www.w3.org/1999/xlink" xml:space="preserve" xmlns:serif="http://www.serif.com/" style="fill-rule:evenodd;clip-rule:evenodd;stroke-linejoin:round;stroke-miterlimit:2;">
    <path id="small-bg:dark" d="M108.57,127.897C109.12,126.947 110.52,127.077 110.87,128.118C115.31,141.238 135.01,198.768 138.64,209.358C138.92,210.188 138.3,211.038 137.43,211.038L62.52,211.038C61.54,211.038 60.93,209.978 61.42,209.127L108.57,127.897ZM178.66,127.897L225.81,209.127C226.3,209.978 225.69,211.038 224.71,211.038L149.8,211.038C148.93,211.038 148.31,210.188 148.59,209.358C152.22,198.768 171.92,141.238 176.36,128.118C176.71,127.077 178.11,126.947 178.66,127.897ZM179.52,108.277C178.98,108.387 178.44,108.148 178.16,107.678L155.73,69.337C155.07,68.217 156.34,66.947 157.47,67.597L212,99.187C213.01,99.777 212.76,101.297 211.62,101.537L179.52,108.277ZM233.14,126.418L233.14,126.428L233.17,196.038C233.17,197.327 231.46,197.798 230.8,196.678L184.81,118.078C184.37,117.328 184.79,116.368 185.64,116.188C192.82,114.678 220.16,108.938 224.75,107.968C225.16,107.877 225.59,107.998 225.89,108.298C230.65,113.088 233.11,120.938 233.14,126.418ZM103.06,116.808L103.05,116.807C103.95,116.927 104.43,117.927 103.98,118.707L58.09,197.767C57.44,198.897 55.72,198.417 55.72,197.117L56.25,122.727C56.25,118.748 58.13,114.938 60.34,111.707C60.61,111.317 61.09,111.118 61.56,111.178L103.06,116.808ZM148.29,221.517L148.29,221.507C148.29,220.807 148.85,220.227 149.56,220.227L219.56,220.227C220.85,220.227 221.32,221.937 220.2,222.597L154.42,261.147C153.11,261.897 151.74,262.477 150.33,262.907C149.53,263.157 148.7,262.537 148.7,261.697L148.29,221.517ZM134.54,261.147L68.75,222.598C67.63,221.938 68.09,220.228 69.39,220.228L139.69,220.228L140.11,261.627C140.12,262.488 139.29,263.127 138.47,262.868C137.12,262.438 135.8,261.877 134.54,261.147ZM121.07,109.788C120.09,109.788 119.48,108.728 119.97,107.877L142.62,68.868C143.11,68.028 144.33,68.028 144.82,68.868L167.65,107.877C168.14,108.718 167.53,109.788 166.55,109.788L121.07,109.788ZM71.39,101.498L130.02,67.528C131.15,66.878 132.41,68.138 131.76,69.268L108.85,108.728L71.86,103.858C70.66,103.697 70.34,102.108 71.39,101.498ZM168.65,118.988L168.65,118.998C169.51,118.998 170.13,119.838 169.86,120.658L145.09,197.258C144.71,198.428 143.05,198.428 142.67,197.258L117.79,120.658C117.52,119.827 118.14,118.988 119,118.988L168.65,118.988Z" style="fill:rgb(239,239,239);"/>
</svg>
