<?xml version="1.0" encoding="utf-8"?>
<!-- Generator: Adobe Illustrator 24.1.3, SVG Export Plug-In . SVG Version: 6.00 Build 0)  -->
<svg version="1.1" id="Layer_1" xmlns="http://www.w3.org/2000/svg" xmlns:xlink="http://www.w3.org/1999/xlink" x="0px" y="0px"
	 viewBox="0 0 388.9 610.6" enable-background="new 0 0 388.9 610.6" xml:space="preserve">
<g>
	<g>
		<path d="M66.9,159.3v29.1H0v-29.1l37.8-96.9H0V33.3h66.9v29.1l-37.8,96.9H66.9z"/>
		<path d="M103.7,188.3H74.6l19-155h39.7l19,155h-29.1l-2.1-26.4h-15.3L103.7,188.3z"/>
		<path d="M226.9,159.3v29.1h-66.9v-29.1l37.8-96.9h-37.8V33.3h66.9v29.1l-37.8,96.9H226.9z M178.5,0l15.3,15.9L208.5,0h12.6
			l-20.5,21.7H187L165.9,0H178.5z"/>
		<path d="M223.4,21.7l-1.9-7.4L274.8,0l1.9,7.6L223.4,21.7z M234.7,188.3v-155h29.1v155H234.7z"/>
		<path d="M320.5,188.3h-29.1v-126h-20V33.3h69v29.1h-20V188.3z"/>
	</g>
	<g>
		<path d="M66.7,399.2v-66.5l-12,66.5H41.1l-12-66.5v66.5H0v-155h29.1l18.8,89.5l18.8-89.5h29.1v155H66.7z"/>
		<path d="M114.1,210.8l15.3,15.9l14.7-15.9h12.6l-20.5,21.7h-13.6l-21.1-21.7H114.1z M130.6,307.2h26.2v29.1h-26.2v33.9h26.2v29.1
			h-55.2v-155h55.2v29.1h-26.2V307.2z"/>
		<path d="M237.4,358.9c0,27.3-10.3,42.2-35.7,42.2s-37.2-11-37.2-55.8h29.1c0,22.9,2.7,26.7,8.1,26.7s6.6-3.9,6.6-13.2
			c0-11.2-1.9-15.9-14.7-26.4c-14.1-11.4-29.1-20.7-29.1-50c0-25.4,10.7-40.3,35.1-40.3c24.4,0,35.8,14.9,35.8,48.1h-29.1
			c0-15.1-2.3-19-6.8-19c-4.5,0-6,3.9-6,11.2c0,11.2,5,15.7,15.9,24C225.7,319,237.4,329.6,237.4,358.9z"/>
		<path d="M290.3,399.2h-29.1v-126h-20v-29.1h69v29.1h-20V399.2z"/>
		<path d="M388.9,286.4V357c0,31.2-13,44.2-36.4,44.2c-23.4,0-36.4-13-36.4-44.2v-70.5c0-31.2,13-44.2,36.4-44.2
			C375.9,242.2,388.9,255.2,388.9,286.4z"/>
	</g>
	<g>
		<path d="M336.4,453.7c23.4,0,36.4,13,36.4,44.2v11.6h-29.1v-9.7c0-13.2-1-17.1-7.4-17.1c-6.4,0-7.4,3.9-7.4,17.1v110.8H300V497.8
			C300,466.6,312.9,453.7,336.4,453.7z"/>
		<path d="M292.2,455.6v155h-29.1v-155H292.2z"/>
		<path d="M201.3,455.6l25,76.5v-76.5h29.1v155h-29.1l-25-76.5v76.5h-29.1v-155H201.3z"/>
		<path d="M137.4,455.6h29.1l-19,155h-39.7l-19-155h29.1l2.1,26.4h15.3L137.4,455.6z"/>
		<path d="M33.9,455.6l18,77.5l-18,77.5h-30l19.2-77.5L3.9,455.6H33.9z M81,455.6v155H51.9v-155H81z"/>
	</g>
</g>
</svg>
